<?xml version="1.0" encoding="UTF-8"?>
<svg width="256" height="256" viewBox="0 0 256 256" xmlns="http://www.w3.org/2000/svg">
  <!-- Background -->
  <rect width="256" height="256" rx="32" fill="#1e3a8a"/>
  
  <!-- Main circle -->
  <circle cx="128" cy="128" r="90" fill="#3b82f6" stroke="#60a5fa" stroke-width="4"/>
  
  <!-- Microphone body -->
  <rect x="108" y="80" width="40" height="70" rx="20" fill="#ffffff"/>
  
  <!-- Microphone grille lines -->
  <line x1="118" y1="95" x2="138" y2="95" stroke="#1e3a8a" stroke-width="2"/>
  <line x1="118" y1="105" x2="138" y2="105" stroke="#1e3a8a" stroke-width="2"/>
  <line x1="118" y1="115" x2="138" y2="115" stroke="#1e3a8a" stroke-width="2"/>
  <line x1="118" y1="125" x2="138" y2="125" stroke="#1e3a8a" stroke-width="2"/>
  <line x1="118" y1="135" x2="138" y2="135" stroke="#1e3a8a" stroke-width="2"/>
  
  <!-- Microphone stand -->
  <rect x="124" y="150" width="8" height="25" fill="#ffffff"/>
  
  <!-- Base -->
  <ellipse cx="128" cy="185" rx="25" ry="8" fill="#ffffff"/>
  
  <!-- AI/Brain symbol -->
  <circle cx="180" cy="76" r="20" fill="#fbbf24" opacity="0.9"/>
  <path d="M170 70 Q175 65 180 70 Q185 65 190 70 Q185 75 180 70 Q175 75 170 70" fill="#1e3a8a"/>
  <circle cx="175" cy="72" r="2" fill="#1e3a8a"/>
  <circle cx="185" cy="72" r="2" fill="#1e3a8a"/>
  
  <!-- Browser/Window symbol -->
  <rect x="60" y="190" width="30" height="20" rx="3" fill="#10b981" opacity="0.9"/>
  <rect x="63" y="193" width="24" height="2" fill="#ffffff"/>
  <circle cx="66" cy="197" r="1.5" fill="#ffffff"/>
  <circle cx="70" cy="197" r="1.5" fill="#ffffff"/>
  <circle cx="74" cy="197" r="1.5" fill="#ffffff"/>
  
  <!-- Text -->
  <text x="128" y="35" font-family="Arial, sans-serif" font-size="18" font-weight="bold" fill="#ffffff" text-anchor="middle">MIC</text>
  <text x="128" y="230" font-family="Arial, sans-serif" font-size="12" fill="#ffffff" text-anchor="middle">BROWSER</text>
</svg>